<?xml version="1.0" encoding="UTF-8"?>
<svg width="4500" height="1e3" version="1.1" viewBox="0 0 1190.6 264.58" xmlns="http://www.w3.org/2000/svg" xmlns:cc="http://creativecommons.org/ns#" xmlns:dc="http://purl.org/dc/elements/1.1/" xmlns:rdf="http://www.w3.org/1999/02/22-rdf-syntax-ns#"><metadata><rdf:RDF><cc:Work rdf:about=""><dc:format>image/svg+xml</dc:format><dc:type rdf:resource="http://purl.org/dc/dcmitype/StillImage"/></cc:Work></rdf:RDF></metadata><g opacity=".997"><g><rect x="21.167" y="31.185" width="222.25" height="222.25" rx="21.167" ry="21.167" fill="#1c2615" stroke-linecap="round" stroke-linejoin="round" stroke-width="1.3079"/><rect x="21.167" y="20.602" width="222.25" height="222.25" rx="21.167" ry="21.167" fill="#4e6b3b" stroke-linecap="round" stroke-linejoin="round" stroke-width="1.3079"/><path d="m57.432 31.771c-10.051 0-18.16 8.1099-18.16 18.162v164.72c0 10.052 8.1096 18.162 18.16 18.162h149.72c10.051 0 18.159-8.1099 18.159-18.162v-164.72c0-10.052-8.1081-18.162-18.159-18.162h-16.652v1.0883h16.652c9.4662 0 17.07 7.6057 17.07 17.074v164.72c0 9.4682-7.6041 17.074-17.07 17.074h-149.72c-9.4662 0-17.07-7.6062-17.07-17.074v-164.72c0-9.4682 7.6041-17.074 17.07-17.074h133.07v-1.0883z" color="#000000" color-rendering="auto" dominant-baseline="auto" fill="#fff" image-rendering="auto" opacity="1" shape-rendering="auto" solid-color="#000000" stop-color="#000000" style="font-feature-settings:normal;font-variant-alternates:normal;font-variant-caps:normal;font-variant-east-asian:normal;font-variant-ligatures:normal;font-variant-numeric:normal;font-variant-position:normal;font-variation-settings:normal;inline-size:0;isolation:auto;mix-blend-mode:normal;shape-margin:0;shape-padding:0;text-decoration-color:#000000;text-decoration-line:none;text-decoration-style:solid;text-indent:0;text-orientation:mixed;text-transform:none;white-space:normal"/><g stroke-width=".34047"><path d="m129.92 122.69c-2.8878-8.4503-7.0199-14.855-19.289-29.899-10.266-12.587-12.002-15.174-13.816-20.589-0.99941-2.9831-1.0667-3.477-0.95013-6.9725 0.11282-3.3858 0.23495-3.9943 1.2203-6.0858 1.284-2.7252 4.4362-6.0403 7.0903-7.4565 3.6556-1.9507 9.2326-2.538 13.544-1.4264 5.0518 1.3025 9.4959 4.981 12.126 10.037l1.4765 2.838 0.93819-1.9386c2.7652-5.7137 7.8243-9.9518 13.309-11.149 2.7038-0.59036 8.0652-0.24808 10.731 0.68504 4.1772 1.4624 8.1721 5.2475 9.6977 9.1882 1.1019 2.8465 1.2364 7.3151 0.32822 10.906-1.5117 5.9781-5.1351 11.837-13.459 21.763-12.274 14.636-16.516 21.012-19.938 29.967-0.67468 1.7656-1.3743 3.2592-1.5547 3.3191-0.18035 0.0598-0.8349-1.3744-1.4544-3.1873z" fill="#500" opacity=".997"/><path d="m131.61 215.5c-1.1461-3.0044-12.191-19.662-19.57-29.515l-5.8027-7.7484 5.0177-6.861c5.1141-6.9926 16.886-24.406 19.311-28.566 0.73692-1.264 1.4423-2.2982 1.5676-2.2982 0.12532 0 1.117 1.4938 2.2038 3.3196 5.3603 9.0049 12.252 19.228 18.844 27.951 2.1714 2.8736 4.1559 5.5131 4.4102 5.8657 0.41748 0.57902 0.167 1.0124-2.5885 4.4787-6.6816 8.4051-13.139 17.832-19.193 28.018-1.9442 3.2715-3.6335 5.9488-3.754 5.9496-0.12044 6.7e-4 -0.32112-0.26673-0.44621-0.59443z" fill="#500" opacity=".997"/><path d="m169.06 167.7c0.14385-0.23408 1.0955-1.4981 2.1148-2.8089 1.0192-1.3108 2.4594-3.6674 3.2004-5.2369 1.239-2.6241 3.248-9.6576 3.7954-13.288l0.22635-1.5011-1.3929 1.4352c-5.7846 5.9607-15.417 7.437-21.186 3.247-3.0732-2.2319-5.0699-5.8853-5.7194-10.465-0.87598-6.1764 2.1901-11.761 7.9678-14.511 4.3066-2.0504 10.62-2.5859 14.941-1.2671l1.615 0.49298-1.8547-2.0494c-2.1914-2.4217-4.3213-6.5866-5.1391-10.049-0.73689-3.1204-0.5382-8.6508 0.39819-11.082 1.3313-3.4569 4.293-6.3768 7.8657-7.7546 2.4679-0.95171 9.0278-1.3164 11.974-0.66561 8.2083 1.8127 12.351 9.0571 10.419 18.221-0.9114 4.3231-2.9325 8.4501-5.6491 11.535-1.0316 1.1716-1.2674 1.6044-0.79925 1.4672 2.5414-0.74464 3.9235-0.94412 6.5704-0.94832 3.627-5e-3 5.5611 0.4236 8.8146 1.9568 6.3074 2.9724 9.6365 9.3215 8.2896 15.81-1.7092 8.2331-8.6646 12.769-17.047 11.118-3.7289-0.73466-7.3854-2.514-9.7609-4.7498l-1.9142-1.8017 0.247 1.6768c0.32627 2.2152 1.9148 7.6506 3.032 10.374 1.335 3.255 2.858 5.4804 7.3053 10.675 0.48467 0.5661-0.21508 0.59583-14.033 0.59583-11.547 0-14.489-0.0877-14.281-0.42558z" fill="#1a1a1a" opacity=".997"/><path d="m72.406 166.82c0-0.0846 0.69577-1.1492 1.5461-2.3657 2.3607-3.377 3.7329-6.6211 6.0959-14.412 0.22064-0.72766 0.12694-0.71046-2.2589 0.41483-8.3066 3.9176-17.319 3.0547-22.864-2.189-6.6053-6.2471-6.0172-15.837 1.6091-26.236 0.75531-1.0299 3.9843-4.5541 7.1755-7.8315 6.4513-6.6254 11.611-12.87 16.075-19.455l2.9689-4.3791 0.67617 1.1075c5.3352 8.7386 9.6461 14.155 17.411 21.876 8.0957 8.0498 10.244 11.027 12.283 17.023 0.76575 2.252 0.92572 3.3134 0.92366 6.1284-5e-3 5.0853-1.3994 8.3523-4.9763 11.65-5.1633 4.7594-13.611 5.6691-21.254 2.2888-1.0436-0.46152-1.9678-0.76881-2.0537-0.68287-0.2376 0.23759 0.57781 3.4284 1.7024 6.6619 1.1796 3.3918 2.4708 5.7743 4.2595 7.86 2.5806 3.0091 3.5793 2.6945-8.5532 2.6945-5.9215 0-10.766-0.0691-10.766-0.15389z" fill="#1a1a1a" opacity=".997"/></g></g><g transform="matrix(1.4422 0 0 1.4422 -94.259 -55.183)" fill="#fff"><g transform="matrix(2.2077 0 0 2.2077 79.57 27.379)" stroke-width=".2614"><path d="m90.659 58.466c0.83226 0 1.1985-0.3662 1.1985-1.1985v-16.346h4.8937c0.83226 0 1.1985-0.3662 1.1985-1.1985v-4.0282c0-0.83226-0.3662-1.1985-1.1985-1.1985h-17.577c-0.83226 0-1.1985 0.3662-1.1985 1.1985v4.0282c0 0.83226 0.3662 1.1985 1.1985 1.1985h4.8937v16.346c0 0.83226 0.3662 1.1985 1.1985 1.1985z"/><path d="m108.54 41.488c0.16645-0.39949 0.3662-0.56594 0.63252-0.56594h0.83226c0.26633 0 0.46607 0.16645 0.63252 0.56594l1.5646 5.0602h-5.2266zm-1.8976 15.78v-4.6607h5.8924v4.6607c0 0.83226 0.39949 1.1985 1.2983 1.1985h5.0269c0.83226 0 1.1984-0.3662 1.1984-1.1985v-8.7887c0-1.3316-0.39948-2.9961-1.2983-5.3265l-2.8963-7.5569c-0.26632-0.76568-0.79897-1.0986-1.6645-1.0986h-8.9552c-0.89884 0-1.4315 0.3329-1.6978 1.0986l-2.8963 7.5569c-0.89884 2.3303-1.2983 3.9949-1.2983 5.3265v8.7887c0 0.83226 0.3662 1.1985 1.1985 1.1985h4.8937c0.83227 0 1.1985-0.3662 1.1985-1.1985z"/><path d="m138.13 58.466c4.4276 0 6.4584-1.7311 6.4584-5.4596v-3.0627c0-3.2625-1.3316-4.8937-4.1946-5.16 1.3316-0.56594 1.9641-1.7311 1.9641-3.5954v-1.5979c0-3.4955-2.0307-5.0934-6.3918-5.0934h-10.62c-0.83226 0-1.1985 0.3662-1.1985 1.1985v21.572c0 0.83226 0.3662 1.1985 1.1985 1.1985zm-6.4916-18.31h2.8297c0.86555 0 1.265 0.43278 1.265 1.3316v0.93213c0 0.89884-0.39949 1.3316-1.265 1.3316h-2.8297zm0 8.7221h4.3278c0.86555 0 1.265 0.39949 1.265 1.2983v1.2983c0 0.89884-0.39949 1.3316-1.265 1.3316h-4.3278z"/><path d="m166.43 58.466c0.83227 0 1.1985-0.3662 1.1985-1.1985v-10.487c0-0.83226-0.36619-1.1985-1.1985-1.1985h-4.8271c-0.83226 0-1.1985 0.3662-1.1985 1.1985v5.3931h-4.5608v-16.479c0-0.83226-0.36619-1.1985-1.1984-1.1985h-5.16c-0.83226 0-1.1985 0.3662-1.1985 1.1985v21.572c0 0.83226 0.3662 1.1985 1.1985 1.1985z"/><path d="m188.07 58.466c0.83226 0 1.1984-0.3662 1.1984-1.1985v-3.895c0-0.83226-0.36619-1.1985-1.1984-1.1985h-9.1882v-2.863h6.4916c0.83227 0 1.1985-0.3662 1.1985-1.1985v-3.5621c0-0.83226-0.36619-1.1985-1.1985-1.1985h-6.4916v-2.5634h9.1882c0.83226 0 1.1984-0.3662 1.1984-1.1985v-3.895c0-0.83226-0.36619-1.1985-1.1984-1.1985h-15.447c-0.83226 0-1.1984 0.3662-1.1984 1.1985v21.572c0 0.83226 0.36619 1.1985 1.1984 1.1985z"/></g><g transform="matrix(2.2044 0 0 2.2044 284.37 -40.87)" stroke-width=".26179"><path d="m113.13 89.496c0.83226 0 1.1985-0.3662 1.1985-1.1985v-16.346h4.8937c0.83226 0 1.1985-0.3662 1.1985-1.1985v-4.0282c0-0.83226-0.3662-1.1985-1.1985-1.1985h-17.577c-0.83227 0-1.1985 0.3662-1.1985 1.1985v4.0282c0 0.83226 0.36619 1.1985 1.1985 1.1985h4.8937v16.346c0 0.83226 0.36619 1.1985 1.1985 1.1985z"/><path d="m143.79 83.204v-11.352c0-4.0614-1.9974-6.8246-10.32-6.8246-8.3226 0-10.353 2.7631-10.353 6.8246v11.352c0 4.0614 2.0307 6.7913 10.353 6.7913 8.3226 0 10.32-2.7298 10.32-6.7913zm-13.116-1.1985v-8.9551c0-0.86555 0.39949-1.5314 2.7964-1.5314 2.4302 0 2.7964 0.66581 2.7964 1.5314v8.9551c0 0.89884-0.3662 1.5647-2.7964 1.5647-2.3969 0-2.7964-0.66581-2.7964-1.5647z"/><path d="m154.38 89.496c0.83227 0 1.1985-0.3662 1.1985-1.1985v-5.5262h3.8284c6.0589 0 7.8566-2.63 7.8566-6.4916v-4.2612c0-3.8617-1.7977-6.4916-7.8566-6.4916h-10.187c-0.83227 0-1.1985 0.3662-1.1985 1.1985v21.572c0 0.83226 0.36619 1.1985 1.1985 1.1985zm1.1319-17.744h2.9962c1.2983 0 1.5646 0.76568 1.5646 1.6312v1.7644c0 0.86555-0.26633 1.6312-1.5646 1.6312h-2.9962z"/></g><g transform="matrix(2.22 0 0 2.22 478.33 -105.65)" stroke-width=".25995"><path d="m105.71 117.88c0.83226 0 1.1985-0.3662 1.1985-1.1985v-3.9616c0-0.83226-0.3662-1.1985-1.1985-1.1985h-6.6914c-1.3982 0-2.0307-0.49936-2.0307-1.5979v-7.9231c0-1.1319 0.63252-1.6645 2.0307-1.6645h6.6914c0.83226 0 1.1985-0.36619 1.1985-1.1985v-4.0281c0-0.83226-0.3662-1.1984-1.1985-1.1984h-8.1229c-5.5928 0-8.1895 2.1639-8.1895 6.8245v10.353c0 4.6274 2.5967 6.7913 8.1895 6.7913z"/><path d="m128.81 117.88c0.83226 0 1.1984-0.3662 1.1984-1.1985v-10.487c0-0.83226-0.36619-1.1985-1.1984-1.1985h-4.8271c-0.83226 0-1.1984 0.3662-1.1984 1.1985v5.3931h-4.5608v-16.479c0-0.83226-0.3662-1.1984-1.1985-1.1984h-5.16c-0.83226 0-1.1985 0.36619-1.1985 1.1984v21.572c0 0.83226 0.3662 1.1985 1.1985 1.1985z"/><path d="m154.21 111.59v-16.479c0-0.83226-0.3662-1.1984-1.1985-1.1984h-5.0602c-0.86556 0-1.1985 0.36619-1.1985 1.1984v15.18c0 0.89885-0.39949 1.5647-2.7631 1.5647-2.3303 0-2.7298-0.66581-2.7298-1.5647v-15.18c0-0.83226-0.36619-1.1984-1.1984-1.1984h-5.2266c-0.83226 0-1.1985 0.36619-1.1985 1.1984v16.479c0 4.0614 2.0307 6.7913 10.287 6.7913 8.256 0 10.287-2.7298 10.287-6.7913z"/><path d="m172.62 117.88c4.4276 0 6.4584-1.7311 6.4584-5.4596v-3.0627c0-3.2625-1.3316-4.8937-4.1946-5.16 1.3316-0.56594 1.9641-1.7311 1.9641-3.5954v-1.598c0-3.4955-2.0307-5.0934-6.3918-5.0934h-10.62c-0.83226 0-1.1985 0.36619-1.1985 1.1984v21.572c0 0.83226 0.3662 1.1985 1.1985 1.1985zm-6.4916-18.31h2.8297c0.86555 0 1.265 0.43278 1.265 1.3316v0.93215c0 0.89884-0.39949 1.3316-1.265 1.3316h-2.8297zm0 8.7221h4.3278c0.86555 0 1.265 0.39949 1.265 1.2983v1.2983c0 0.89884-0.39949 1.3316-1.265 1.3316h-4.3278z"/></g></g></g><g fill="#fff" fill-opacity=".082353" stroke-linecap="round" stroke-linejoin="round" stroke-width="4.9434"><path transform="scale(.26458)" d="m896.62 103.38-793.24 793.24c14.46 14.46 34.459 23.381 56.619 23.381h680c44.32 0 80-35.68 80-80v-680c0-22.16-8.9209-42.159-23.381-56.619z" opacity=".997"/><path transform="scale(.26458)" d="m896.62 1103.4-793.24 793.24c14.46 14.46 34.459 23.381 56.619 23.381h680c44.32 0 80-35.68 80-80v-680c0-22.16-8.9209-42.159-23.381-56.619z" opacity=".997"/></g></svg>
